<svg width="29" height="12" viewBox="0 0 29 12" fill="none" xmlns="http://www.w3.org/2000/svg">
<path d="M1.97869 11L2.91335 8.3054H6.89062L7.82031 11H9.45099L5.78693 0.818182H4.01207L0.348011 11H1.97869ZM3.3608 7.01278L4.86222 2.66761H4.94176L6.44318 7.01278H3.3608ZM18.8995 4.12926C18.5515 1.9517 16.8462 0.678977 14.6935 0.678977C12.0586 0.678977 10.1147 2.6527 10.1147 5.90909C10.1147 9.16548 12.0487 11.1392 14.6935 11.1392C16.9308 11.1392 18.5664 9.73722 18.8995 7.72372L17.3484 7.71875C17.0849 9.02131 15.9911 9.73722 14.7035 9.73722C12.9585 9.73722 11.641 8.39986 11.641 5.90909C11.641 3.43821 12.9535 2.08097 14.7085 2.08097C16.006 2.08097 17.0948 2.81179 17.3484 4.12926H18.8995ZM20.7377 11H22.274V6.56037H27.35V11H28.8912V0.818182H27.35V5.2429H22.274V0.818182H20.7377V11Z" fill="white"/>
</svg>
