<svg width="30" height="12" viewBox="0 0 30 12" fill="none" xmlns="http://www.w3.org/2000/svg">
<path d="M6.06371 1.54973C5.72395 1.9549 5.18311 2.27505 4.6364 2.22921C4.56889 1.68133 4.83454 1.09945 5.15008 0.739371C5.48985 0.323105 6.08426 0.0266174 6.56565 0C6.62289 0.570795 6.402 1.12976 6.06737 1.54603L6.06371 1.54973ZM6.56051 2.3342C5.77311 2.28836 5.09871 2.78447 4.72593 2.78447C4.35314 2.78447 3.77195 2.35638 3.15113 2.36821C2.74551 2.37854 2.34962 2.49562 2.00281 2.70782C1.656 2.92002 1.37034 3.21995 1.17419 3.57782C0.325146 5.05065 0.954035 7.23031 1.77519 8.42883C2.17733 9.02033 2.6558 9.6732 3.29276 9.65028C3.89304 9.62736 4.13153 9.25619 4.85582 9.25619C5.58011 9.25619 5.7966 9.65028 6.43063 9.63845C7.09107 9.62736 7.50128 9.04696 7.90342 8.45546C8.18862 8.03575 8.41115 7.57613 8.56387 7.09131C8.55286 7.08022 7.29507 6.5952 7.28406 5.1342C7.27306 3.91276 8.27548 3.33087 8.32024 3.29612C7.75446 2.45176 6.87092 2.36008 6.56491 2.33494L6.56051 2.3342ZM11.1147 0.679487V9.57634H12.4855V6.53456H14.3824C16.1157 6.53456 17.3339 5.33605 17.3339 3.60148C17.3339 1.86692 16.1385 0.679487 14.4279 0.679487H11.1147ZM12.4855 1.844H14.0654C15.2549 1.844 15.9345 2.48281 15.9345 3.6074C15.9345 4.73198 15.255 5.37598 14.0595 5.37598H12.4855V1.844ZM19.837 9.6451C20.6978 9.6451 21.4969 9.20592 21.8594 8.50943H21.8873V9.57634H23.1561V5.14824C23.1561 3.86395 22.1368 3.0366 20.5679 3.0366C19.112 3.0366 18.0362 3.87579 17.9995 5.02847H19.2338C19.3358 4.48059 19.8399 4.12052 20.5312 4.12052C21.3692 4.12052 21.8396 4.51461 21.8396 5.23919V5.73013L20.1291 5.8329C18.5374 5.92976 17.6766 6.58632 17.6766 7.72791C17.6766 8.8695 18.5535 9.64806 19.8275 9.64806L19.837 9.6451ZM20.2039 8.58928C19.4701 8.58928 19.0085 8.23512 19.0085 7.69316C19.0085 7.1342 19.4561 6.80591 20.3118 6.75712L21.8352 6.66026V7.16229C21.8271 7.99852 21.1249 8.59224 20.1958 8.59224L20.2039 8.58928ZM24.8483 11.9963C26.1854 11.9963 26.8135 11.4787 27.3632 9.92606L29.7701 3.12384H28.3759L26.7614 8.3793H26.7328L25.1184 3.12384H23.6852L26.007 9.60074L25.883 9.99483C25.6732 10.6603 25.3334 10.919 24.7272 10.919C24.6194 10.919 24.4102 10.9079 24.3251 10.8961V11.9638C24.4958 11.9877 24.6679 11.9998 24.8403 12L24.8483 11.9963Z" fill="#999999"/>
</svg>
