<svg width="14" height="12" viewBox="0 0 14 12" fill="none" xmlns="http://www.w3.org/2000/svg">
<path d="M6.96516 0.0012195C6.93283 0.00456913 6.90121 0.01289 6.87142 0.025888L0.240511 2.8677C0.183385 2.89195 0.134668 2.93249 0.100447 2.98426C0.0662265 3.03603 0.0480179 3.09674 0.048096 3.15879V4.10607C0.0481043 4.18981 0.0813742 4.27012 0.140588 4.32933C0.199803 4.38854 0.280112 4.42181 0.363853 4.42182H2.41628V8.84243H1.469C1.45914 8.84196 1.44926 8.84196 1.4394 8.84243C1.36089 8.84983 1.28799 8.88633 1.23504 8.94476C1.18208 9.0032 1.15291 9.07933 1.15325 9.15818V9.94758H0.363853C0.280112 9.94759 0.199803 9.98086 0.140588 10.0401C0.0813742 10.0993 0.0481043 10.1796 0.048096 10.2633V11.6842C0.0481043 11.768 0.0813742 11.8483 0.140588 11.9075C0.199803 11.9667 0.280112 12 0.363853 12H13.6257C13.7094 12 13.7897 11.9667 13.8489 11.9075C13.9081 11.8483 13.9414 11.768 13.9414 11.6842V10.2633C13.9414 10.1796 13.9081 10.0993 13.8489 10.0401C13.7897 9.98086 13.7094 9.94759 13.6257 9.94758H12.8363V9.15818C12.8363 9.07444 12.803 8.99413 12.7438 8.93492C12.6846 8.8757 12.6043 8.84243 12.5205 8.84243H11.5732V5.3691C11.5739 5.3268 11.5661 5.2848 11.5502 5.24559C11.5343 5.20639 11.5107 5.17077 11.4808 5.14086C11.4509 5.11095 11.4153 5.08735 11.3761 5.07147C11.3368 5.05559 11.2948 5.04774 11.2525 5.0484C11.2111 5.04905 11.1702 5.05786 11.1321 5.07433C11.094 5.09079 11.0596 5.11459 11.0307 5.14437C11.0019 5.17415 10.9791 5.20933 10.9639 5.24788C10.9486 5.28644 10.9411 5.32763 10.9417 5.3691V8.84243H10.3102V4.42182H13.6257C13.7094 4.42181 13.7897 4.38854 13.8489 4.32933C13.9081 4.27012 13.9414 4.18981 13.9414 4.10607V3.15879C13.9415 3.09674 13.9233 3.03603 13.8891 2.98426C13.8548 2.93249 13.8061 2.89195 13.749 2.8677L7.1181 0.025888C7.06996 0.00509332 7.0174 -0.00338464 6.96516 0.0012195ZM6.99476 0.662337L13.3099 3.36601V3.79031H0.679611V3.36601L6.99476 0.662337ZM3.04779 4.42182H3.67931V8.84243H3.04779V4.42182ZM4.31082 4.42182H6.04749V8.84243H4.31082V4.42182ZM6.679 4.42182H7.31052V8.84243H6.679V4.42182ZM7.94203 4.42182H9.6787V8.84243H7.94203V4.42182ZM1.78476 9.47394H12.2048V10.2633C12.2048 10.3471 12.238 10.4274 12.2972 10.4866C12.3565 10.5458 12.4368 10.5791 12.5205 10.5791H13.3099V11.3685H0.679611V10.5791H1.469C1.55275 10.5791 1.63306 10.5458 1.69227 10.4866C1.75148 10.4274 1.78475 10.3471 1.78476 10.2633V9.47394Z" fill="#C3C3C3"/>
</svg>
