<svg width="32" height="32" viewBox="0 0 32 32" fill="none" xmlns="http://www.w3.org/2000/svg">
<path d="M0 8C0 3.58172 3.58172 0 8 0H24C28.4183 0 32 3.58172 32 8V24C32 28.4183 28.4183 32 24 32H8C3.58172 32 0 28.4183 0 24V8Z" fill="#0086FB"/>
<path d="M21.0622 9.5528L21.9143 6.40002H19.4431L18.9319 8.36131C18.4774 8.19073 17.9946 8.07744 17.5125 7.99202L17.9378 6.40002H15.4666L15.0689 7.93396C12.9388 8.21783 10.9788 9.3257 9.67276 11.0583C6.94553 14.6088 7.62708 19.7216 11.1778 22.4483L10.3257 25.6H12.7695L13.2808 23.6403C13.7352 23.8106 14.2183 23.9242 14.7001 24.0096L14.2738 25.6H16.7164L17.1424 24.0663C19.2728 23.7833 21.234 22.6756 22.5393 20.943C25.2944 17.3639 24.6126 12.2798 21.0622 9.5528ZM16.12 17.9038C15.7379 17.9038 15.3645 17.7906 15.0468 17.5784C14.7291 17.3661 14.4815 17.0645 14.3352 16.7115C14.189 16.3586 14.1507 15.9702 14.2252 15.5955C14.2997 15.2208 14.4836 14.8766 14.7538 14.6064C15.0239 14.3362 15.3681 14.1522 15.7428 14.0777C16.1175 14.0031 16.5059 14.0414 16.8589 14.1876C17.2118 14.3337 17.5135 14.5813 17.7258 14.899C17.938 15.2166 18.0513 15.5901 18.0513 15.9722C18.0513 17.0516 17.1992 17.9038 16.12 17.9038Z" fill="white"/>
</svg>
