<svg width="32" height="32" viewBox="0 0 32 32" fill="none" xmlns="http://www.w3.org/2000/svg">
<path d="M0 8C0 3.58172 3.58172 0 8 0H24C28.4183 0 32 3.58172 32 8V24C32 28.4183 28.4183 32 24 32H8C3.58172 32 0 28.4183 0 24V8Z" fill="#E48825"/>
<g clip-path="url(#clip0_609_83820)">
<path fill-rule="evenodd" clip-rule="evenodd" d="M24.8554 17.7986C25.3316 17.3211 25.599 16.6744 25.599 16.0001C25.599 15.3258 25.3316 14.679 24.8554 14.2015L17.8024 7.14846C17.3249 6.6723 16.6781 6.40491 16.0038 6.40491C15.3295 6.40491 14.6828 6.6723 14.2053 7.14846L7.15225 14.2015C6.67609 14.679 6.40869 15.3258 6.40869 16.0001C6.40869 16.6744 6.67609 17.3211 7.15225 17.7986L14.2053 24.8516C14.6828 25.3278 15.3295 25.5952 16.0038 25.5952C16.6781 25.5952 17.3249 25.3278 17.8024 24.8516L24.8554 17.7986ZM15.994 18.4392C16.4122 18.4394 16.8234 18.3323 17.1883 18.1282C17.5533 17.9241 17.8598 17.6299 18.0786 17.2735C18.0958 17.243 18.1208 17.2176 18.1512 17.2C18.1815 17.1824 18.216 17.1733 18.251 17.1736H20.6961C20.7249 17.1746 20.7531 17.182 20.7787 17.1952C20.8044 17.2083 20.8268 17.227 20.8444 17.2498C20.8619 17.2727 20.8743 17.2991 20.8805 17.3272C20.8867 17.3554 20.8866 17.3845 20.8802 17.4126C20.5397 18.5917 19.7848 19.6082 18.7545 20.2752C17.7243 20.9421 16.4878 21.2147 15.2726 21.0427C14.0574 20.8707 12.9452 20.2658 12.1404 19.3391C11.3357 18.4124 10.8926 17.2264 10.8926 15.9991C10.8926 14.7718 11.3357 13.5857 12.1404 12.6591C12.9452 11.7324 14.0574 11.1274 15.2726 10.9555C16.4878 10.7835 17.7243 11.056 18.7545 11.723C19.7848 12.3899 20.5397 13.4064 20.8802 14.5855C20.8868 14.6146 20.8867 14.6448 20.8798 14.6738C20.8729 14.7028 20.8596 14.7298 20.8407 14.7529C20.8218 14.7759 20.7979 14.7944 20.7708 14.8068C20.7437 14.8192 20.7141 14.8253 20.6843 14.8245H18.2589C18.2237 14.824 18.1893 14.8146 18.1588 14.7971C18.1283 14.7796 18.1027 14.7547 18.0845 14.7246C17.862 14.3603 17.548 14.0605 17.1738 13.8551C16.7996 13.6496 16.3782 13.5456 15.9514 13.5534C15.5246 13.5613 15.1072 13.6806 14.7408 13.8996C14.3743 14.1186 14.0716 14.4297 13.8625 14.8019C13.6535 15.1741 13.5455 15.5945 13.5492 16.0214C13.5529 16.4483 13.6683 16.8667 13.8838 17.2353C14.0992 17.6038 14.4074 17.9095 14.7776 18.1221C15.1478 18.3347 15.5672 18.4467 15.994 18.4471V18.4392Z" fill="white"/>
</g>
<defs>
<clipPath id="clip0_609_83820">
<rect width="19.2" height="19.2" fill="white" transform="translate(6.40002 6.40002)"/>
</clipPath>
</defs>
</svg>
