<svg width="18" height="12" viewBox="0 0 18 12" fill="none" xmlns="http://www.w3.org/2000/svg">
<path d="M1.52059 8.81564H1.3697L1.21921 9.65732H1.36578C1.71313 9.65732 1.86815 9.47674 1.86815 9.13805C1.86815 8.92449 1.75085 8.81564 1.52059 8.81564ZM1.32785 10.1049H1.13944L0.955765 11.1591H0.370117L0.863413 8.36811H1.63747C2.09346 8.36811 2.48698 8.54416 2.48698 9.08775C2.48698 9.7909 2.01842 10.1049 1.32785 10.1049Z" fill="#176FC1"/>
<path d="M3.43428 9.67797C3.21804 9.67797 3.00571 10.0381 3.00571 10.4347C3.00571 10.639 3.05415 10.759 3.15393 10.759C3.32605 10.759 3.57054 10.3665 3.66248 9.85402L3.67856 9.76599C3.64248 9.73755 3.58229 9.67797 3.43428 9.67797ZM3.97086 11.1593H3.43036L3.4786 10.8787C3.38687 11.023 3.25019 11.1997 2.94201 11.1997C2.68537 11.1997 2.43738 10.9989 2.43738 10.4949C2.43738 9.77012 2.86595 9.23724 3.36192 9.23724C3.64248 9.23724 3.74638 9.3533 3.78286 9.38958L3.80265 9.27765H4.30337L3.97086 11.1593Z" fill="#176FC1"/>
<path d="M5.47977 11.0433C5.20375 11.5953 4.92773 11.9196 4.28683 12L4.22705 11.6077C4.47133 11.5314 4.71932 11.4078 4.85578 11.1309L4.91123 11.0188L4.58347 9.27749H5.15613L5.30002 10.3022L5.77249 9.27749H6.36886L5.47977 11.0433Z" fill="#176FC1"/>
<path d="M8.98754 11.1591H8.44704L8.6672 9.91788C8.68286 9.8381 8.67915 9.75771 8.58742 9.75771C8.419 9.75771 8.11845 10.1582 8.03476 10.6388L7.94282 11.1591H7.40149L7.62247 9.91788C7.63793 9.8381 7.63464 9.75771 7.54208 9.75771C7.37387 9.75771 7.07393 10.1582 6.98921 10.6388L6.89747 11.1591H6.35718L6.68927 9.2774H7.22957L7.15371 9.71792C7.27389 9.52127 7.4621 9.237 7.78615 9.237C8.07846 9.237 8.20688 9.42541 8.18648 9.72596C8.29058 9.55322 8.48703 9.237 8.83129 9.237C9.16379 9.237 9.28377 9.48148 9.21553 9.86552L8.98754 11.1591Z" fill="#176FC1"/>
<path d="M10.561 9.62157C10.393 9.62157 10.2327 9.8341 10.1686 10.1384C10.525 10.0903 10.7412 10.0064 10.7412 9.79762C10.7412 9.67785 10.6689 9.62157 10.561 9.62157ZM10.1405 10.447C10.1488 10.6543 10.237 10.7589 10.417 10.7589C10.6252 10.7589 10.8249 10.6506 10.9735 10.5589L11.1218 10.911C10.9974 11.0031 10.7293 11.1996 10.3411 11.1996C9.92057 11.1996 9.58435 10.9955 9.58435 10.4268C9.58435 9.76587 9.9484 9.23712 10.5895 9.23712C11.0698 9.23712 11.2778 9.44573 11.2778 9.76587C11.2778 10.2864 10.8534 10.4107 10.1405 10.447Z" fill="#176FC1"/>
<path d="M13.0714 11.1591H12.5309L12.7511 9.91788C12.7673 9.8381 12.7632 9.75771 12.6713 9.75771C12.5031 9.75771 12.2025 10.1582 12.1186 10.6388L12.0269 11.1591H11.486L11.8183 9.2774H12.359L12.2831 9.71792C12.4031 9.52127 12.5911 9.237 12.9153 9.237C13.2476 9.237 13.3676 9.48148 13.3002 9.86552L13.0714 11.1591Z" fill="#176FC1"/>
<path d="M14.7533 9.67797H14.4732L14.3093 10.6066C14.2924 10.687 14.3206 10.7266 14.3808 10.7266C14.4369 10.7266 14.4812 10.7112 14.5334 10.687L14.589 11.0591C14.5088 11.1113 14.3567 11.1997 14.1405 11.1997C13.8605 11.1997 13.6966 11.023 13.764 10.6431L13.9327 9.67797H13.7323L13.8038 9.27764H14.0044L14.1163 8.86928L14.6373 8.75693L14.5447 9.27764H14.8253L14.7533 9.67797Z" fill="#176FC1"/>
<path d="M16.2625 9.85006C16.1467 9.76987 15.9622 9.68206 15.8187 9.68206C15.7061 9.68206 15.6299 9.72184 15.6299 9.81399C15.6299 9.89789 15.7144 9.93458 15.8265 9.98199L15.9304 10.0261C16.1225 10.1061 16.3351 10.2341 16.3351 10.5705C16.3351 10.9709 16.1225 11.1995 15.642 11.1995C15.2499 11.1995 15.0211 11.0269 14.8774 10.9232L15.0894 10.5509C15.2297 10.6544 15.4497 10.7546 15.5942 10.7546C15.7185 10.7546 15.7698 10.7109 15.7698 10.6188C15.7698 10.5266 15.682 10.4862 15.5701 10.4423L15.4619 10.3988C15.2701 10.3225 15.0654 10.1943 15.0654 9.86161C15.0654 9.42953 15.3984 9.2372 15.8141 9.2372C16.1506 9.2372 16.3592 9.40562 16.4548 9.47715L16.2625 9.85006Z" fill="#176FC1"/>
<path d="M8.9934 6.06193H7.82602L7.71264 6.71086H8.61678L8.53288 7.19199H7.62936L7.41992 8.37195H6.83386L7.32819 5.581H9.08101L8.9934 6.06193Z" fill="#176FC1"/>
<path d="M9.73127 6.89013C9.51503 6.89013 9.30271 7.25067 9.30271 7.64687C9.30271 7.85137 9.35074 7.97134 9.45092 7.97134C9.62305 7.97134 9.86753 7.57926 9.95906 7.06659L9.97555 6.97856C9.93968 6.95032 9.8797 6.89013 9.73127 6.89013ZM10.2674 8.37167H9.72695L9.77518 8.09132C9.68324 8.23561 9.54719 8.41187 9.2386 8.41187C8.98236 8.41187 8.73438 8.2115 8.73438 7.70748C8.73438 6.98248 9.16294 6.44981 9.65871 6.44981C9.93968 6.44981 10.0434 6.56608 10.0797 6.60194L10.0996 6.49001H10.6002L10.2674 8.37167Z" fill="#176FC1"/>
<path d="M12.0982 7.06267C11.9817 6.98248 11.7976 6.89425 11.6535 6.89425C11.5414 6.89425 11.4651 6.93466 11.4651 7.02639C11.4651 7.1105 11.5496 7.14636 11.6611 7.1946L11.7653 7.23892C11.9576 7.3189 12.1699 7.44651 12.1699 7.78313C12.1699 8.18387 11.9576 8.41187 11.4773 8.41187C11.0848 8.41187 10.857 8.23974 10.7123 8.13605L10.925 7.76334C11.0646 7.86724 11.2851 7.96742 11.4292 7.96742C11.5527 7.96742 11.6055 7.92352 11.6055 7.83137C11.6055 7.73923 11.5173 7.69923 11.4051 7.65491L11.2971 7.61121C11.1052 7.53494 10.9007 7.40713 10.9007 7.07463C10.9007 6.64235 11.2332 6.45002 11.6494 6.45002C11.9854 6.45002 12.1938 6.61802 12.2901 6.68976L12.0982 7.06267Z" fill="#176FC1"/>
<path d="M13.5994 6.89013H13.3193L13.1548 7.81962C13.1391 7.8994 13.1667 7.9396 13.2267 7.9396C13.2832 7.9396 13.3271 7.92331 13.3791 7.8994L13.4347 8.27148C13.3547 8.32384 13.2026 8.41187 12.9868 8.41187C12.7068 8.41187 12.5421 8.23561 12.6106 7.85549L12.7788 6.89013H12.578L12.6504 6.49001H12.8505L12.9627 6.08164L13.4832 5.9693L13.3908 6.49001H13.6714L13.5994 6.89013Z" fill="#176FC1"/>
<path d="M14.7324 6.83451C14.5644 6.83451 14.4038 7.04663 14.3403 7.35069C14.6965 7.30286 14.9126 7.21896 14.9126 7.01076C14.9126 6.89038 14.8408 6.83451 14.7324 6.83451ZM14.3119 7.65928C14.3201 7.86748 14.4081 7.97159 14.5885 7.97159C14.7969 7.97159 14.9967 7.86357 15.1451 7.77163L15.2931 8.12372C15.1688 8.21586 14.9004 8.41211 14.5122 8.41211C14.0919 8.41211 13.7555 8.20803 13.7555 7.6397C13.7555 6.97881 14.1197 6.45026 14.761 6.45026C15.2409 6.45026 15.4489 6.65847 15.4489 6.97881C15.4489 7.49932 15.0247 7.62341 14.3119 7.65928Z" fill="#176FC1"/>
<path d="M16.9788 7.03459C16.7065 7.03459 16.3938 7.2667 16.2901 7.85153L16.198 8.37183H15.6575L15.99 6.48996H16.5183L16.4505 6.88637C16.574 6.60623 16.7185 6.44997 17.0829 6.44997L16.9788 7.03459Z" fill="#176FC1"/>
<path d="M8.81713 3.88134V3.89082C8.8163 4.02523 8.71014 4.16004 8.49987 4.26147L1.45314 7.67455C1.02952 7.88007 0.872849 7.71269 1.10352 7.30288L2.39294 5.01182C2.57991 4.67746 2.68689 4.29198 2.68689 3.88134C2.68689 3.4705 2.57991 3.08481 2.39294 2.75086L1.10352 0.459808C0.872849 0.0497923 1.02952 -0.117594 1.45314 0.0879283L8.49987 3.5008C8.71014 3.60326 8.8163 3.73745 8.81713 3.87186V3.88134Z" fill="#176FC1"/>
</svg>
