<svg width="20" height="12" viewBox="0 0 20 12" fill="none" xmlns="http://www.w3.org/2000/svg">
<path d="M12.5255 1.2832H7.19751V10.7168H12.5255V1.2832Z" fill="#FF5F00"/>
<path d="M7.53575 5.99999C7.53586 5.09249 7.74436 4.19678 8.14561 3.37993C8.54687 2.56308 9.13049 1.84627 9.85277 1.28319C8.95451 0.587334 7.87567 0.154559 6.73958 0.034319C5.60349 -0.085921 4.45598 0.111223 3.42823 0.603236C2.40049 1.09525 1.53397 1.86227 0.927735 2.81662C0.321497 3.77096 0 4.87412 0 5.99999C0 7.12587 0.321497 8.22903 0.927735 9.18337C1.53397 10.1377 2.40049 10.9047 3.42823 11.3968C4.45598 11.8888 5.60349 12.0859 6.73958 11.9657C7.87567 11.8454 8.95451 11.4127 9.85277 10.7168C9.12919 10.1549 8.54464 9.43831 8.14325 8.62119C7.74186 7.80408 7.53413 6.90779 7.53575 5.99999Z" fill="#EB001B"/>
<path d="M19.7143 5.99999C19.7153 7.12534 19.3949 8.22825 18.7896 9.18254C18.1842 10.1368 17.3185 10.9039 16.2914 11.3961C15.2643 11.8882 14.1173 12.0855 12.9818 11.9654C11.8462 11.8452 10.7679 11.4125 9.87024 10.7168C10.5926 10.1538 11.1764 9.43703 11.5777 8.62016C11.9789 7.80329 12.1874 6.90752 12.1874 5.99999C12.1874 5.09245 11.9789 4.19669 11.5777 3.37982C11.1764 2.56295 10.5926 1.84616 9.87024 1.28318C10.7679 0.587436 11.8462 0.154742 12.9818 0.0346161C14.1173 -0.0855094 15.2643 0.111787 16.2914 0.603922C17.3185 1.09606 18.1842 1.86316 18.7896 2.81744C19.3949 3.77172 19.7153 4.87464 19.7143 5.99999Z" fill="#F79E1B"/>
</svg>
