<svg width="32" height="32" viewBox="0 0 32 32" fill="none" xmlns="http://www.w3.org/2000/svg">
<path d="M0 8C0 3.58172 3.58172 0 8 0H24C28.4183 0 32 3.58172 32 8V24C32 28.4183 28.4183 32 24 32H8C3.58172 32 0 28.4183 0 24V8Z" fill="white"/>
<path d="M6.40243 17.3347C6.42294 17.2556 6.43897 17.1754 6.45046 17.0945C6.71582 13.9159 8.96478 11.2428 12.0615 10.5199C14.595 9.92907 16.8644 10.5199 18.7988 12.2695C20.0224 13.368 20.8284 14.8559 21.0801 16.4809C21.3399 18.0141 21.1103 19.5902 20.4238 20.9854C19.7373 22.3807 18.6289 23.5244 17.2558 24.254C16.4581 24.6809 15.5865 24.9523 14.6875 25.0538C14.5674 25.0682 14.4473 25.0862 14.3344 25.103H13.2658C13.231 25.0946 13.1974 25.0838 13.1637 25.079C12.8443 25.031 12.5201 25.0022 12.2032 24.9325C10.6653 24.5888 9.27746 23.7626 8.24216 22.5744C7.20687 21.3863 6.57826 19.8984 6.44805 18.3278C6.43717 18.2468 6.42113 18.1666 6.40002 18.0877L6.40243 17.3347Z" fill="#7213F5"/>
<path d="M23.1873 6.90537L23.4274 6.95581C23.9837 7.05454 24.4934 7.32971 24.8811 7.74062C25.2688 8.15153 25.514 8.67635 25.5804 9.23743C25.6628 9.90978 25.4839 10.5881 25.0805 11.1323C24.6772 11.6765 24.0803 12.0449 23.413 12.1615C22.7448 12.2726 22.0593 12.1227 21.4984 11.7428C20.9375 11.3628 20.544 10.7819 20.3992 10.1201C20.3237 9.78057 20.316 9.42951 20.3764 9.08703C20.4369 8.74455 20.5644 8.41737 20.7516 8.12428C20.9388 7.83119 21.182 7.57795 21.4673 7.37909C21.7526 7.18022 22.0743 7.03964 22.414 6.96541L22.7346 6.89697L23.1873 6.90537Z" fill="#7213F5"/>
<path d="M8 1H24V-1H8V1ZM31 8V24H33V8H31ZM24 31H8V33H24V31ZM1 24V8H-1V24H1ZM8 31C4.13401 31 1 27.866 1 24H-1C-1 28.9706 3.02944 33 8 33V31ZM31 24C31 27.866 27.866 31 24 31V33C28.9706 33 33 28.9706 33 24H31ZM24 1C27.866 1 31 4.13401 31 8H33C33 3.02944 28.9706 -1 24 -1V1ZM8 -1C3.02944 -1 -1 3.02944 -1 8H1C1 4.13401 4.13401 1 8 1V-1Z" fill="black" fill-opacity="0.1"/>
</svg>
