<svg width="35" height="12" viewBox="0 0 35 12" fill="none" xmlns="http://www.w3.org/2000/svg">
<path d="M0.717529 10.9139L1.06005 10.8785C1.07053 10.9753 1.11473 11.0652 1.1849 11.1326C1.25694 11.1896 1.34731 11.2183 1.43901 11.2133C1.53025 11.2204 1.62105 11.1949 1.69535 11.1415C1.72164 11.122 1.74308 11.0967 1.75802 11.0676C1.77297 11.0384 1.78101 11.0063 1.78152 10.9735C1.78386 10.9334 1.77083 10.8939 1.74506 10.8631C1.71035 10.8272 1.66696 10.801 1.6191 10.7868C1.57822 10.7736 1.48431 10.7481 1.33846 10.7117C1.19534 10.6853 1.06009 10.6268 0.942927 10.5404C0.892389 10.4973 0.851947 10.4435 0.824455 10.383C0.796964 10.3225 0.783101 10.2567 0.783832 10.1902C0.783635 10.102 0.809792 10.0159 0.858956 9.9427C0.912637 9.86267 0.989851 9.80129 1.07993 9.76703C1.18879 9.72374 1.30532 9.70305 1.42244 9.70626C1.5986 9.69354 1.77348 9.74452 1.91522 9.8499C1.97012 9.89778 2.0141 9.95687 2.04422 10.0232C2.07433 10.0895 2.08987 10.1615 2.08978 10.2344L1.73733 10.2488C1.73016 10.1744 1.69549 10.1055 1.6401 10.0554C1.57514 10.0116 1.49728 9.99092 1.41913 9.99684C1.33457 9.99199 1.25063 10.014 1.17937 10.0598C1.16129 10.0718 1.14667 10.0883 1.13698 10.1077C1.12728 10.1271 1.12285 10.1487 1.12413 10.1703C1.1233 10.1915 1.12758 10.2127 1.13662 10.2319C1.14565 10.2511 1.15918 10.2679 1.17605 10.2808C1.27557 10.3378 1.38508 10.3753 1.49868 10.3913C1.62949 10.4178 1.7567 10.4597 1.87764 10.5161C1.95669 10.5569 2.02317 10.6183 2.0699 10.694C2.11788 10.7784 2.14159 10.8743 2.1384 10.9713C2.13859 11.0713 2.10981 11.1691 2.05554 11.2531C1.99925 11.3408 1.91698 11.4088 1.8202 11.4475C1.69917 11.493 1.57044 11.5143 1.44122 11.5105C1.25912 11.5227 1.07883 11.4681 0.934092 11.3569C0.80826 11.2421 0.730827 11.0837 0.717529 10.9139Z" fill="#0054A5"/>
<path d="M2.49854 10.0497V9.74255H2.83V10.0497H2.49854ZM2.49854 11.486V10.2265H2.83V11.486H2.49854Z" fill="#0054A5"/>
<path d="M4.3957 11.4828H4.06424V10.8387C4.06903 10.7497 4.06197 10.6605 4.04325 10.5735C4.03056 10.5359 4.00616 10.5034 3.97364 10.4807C3.94104 10.4586 3.9025 10.4471 3.86316 10.4475C3.80787 10.4466 3.75372 10.4633 3.70847 10.495C3.66403 10.5254 3.63098 10.5697 3.61456 10.621C3.59338 10.7159 3.58484 10.8133 3.58915 10.9105V11.4828H3.25769V10.2232H3.55489V10.4078C3.62217 10.3122 3.72021 10.2426 3.83262 10.2106C3.94503 10.1787 4.06501 10.1862 4.17251 10.2321C4.22667 10.2533 4.2743 10.2883 4.31062 10.3337C4.34214 10.3753 4.36437 10.4231 4.37582 10.474C4.38944 10.5469 4.39536 10.6209 4.39348 10.695L4.3957 11.4828Z" fill="#0054A5"/>
<path d="M4.77016 11.5657L5.14913 11.6077C5.15075 11.6443 5.16663 11.6788 5.19334 11.7038C5.23775 11.733 5.29059 11.7466 5.34358 11.7425C5.4115 11.7468 5.47936 11.7331 5.54025 11.7027C5.57157 11.6834 5.59506 11.6537 5.60656 11.6187C5.61993 11.5687 5.62514 11.5168 5.62201 11.4652V11.2817C5.58098 11.3438 5.52517 11.3946 5.4596 11.4297C5.39403 11.4648 5.32075 11.4831 5.24637 11.4828C5.16644 11.4845 5.08742 11.4657 5.01683 11.4281C4.94624 11.3906 4.88644 11.3357 4.84309 11.2685C4.76414 11.1415 4.72561 10.9936 4.7326 10.8442C4.72056 10.6691 4.77501 10.4959 4.88507 10.3592C4.93242 10.3053 4.99095 10.2623 5.05659 10.2333C5.12223 10.2043 5.19339 10.1899 5.26514 10.1912C5.34147 10.1912 5.4166 10.2101 5.48388 10.2461C5.55115 10.2822 5.60848 10.3343 5.65074 10.3979V10.2233H5.96232V11.3558C5.96633 11.4675 5.95366 11.5792 5.92474 11.6872C5.90547 11.7527 5.87016 11.8123 5.822 11.8607C5.77062 11.9063 5.70991 11.9403 5.6441 11.9601C5.55247 11.9859 5.45753 11.9978 5.36238 11.9955C5.20264 12.0096 5.04269 11.9707 4.90717 11.885C4.86472 11.8517 4.83056 11.8091 4.80736 11.7604C4.78417 11.7117 4.77258 11.6583 4.77348 11.6044C4.77017 11.5955 4.77016 11.5834 4.77016 11.5657ZM5.06958 10.8254C5.06121 10.9297 5.08847 11.0337 5.14691 11.1204C5.16933 11.1495 5.19814 11.1729 5.2311 11.189C5.26406 11.2051 5.30027 11.2134 5.33695 11.2132C5.37614 11.2139 5.41498 11.2056 5.45056 11.1892C5.48614 11.1727 5.51756 11.1485 5.54246 11.1182C5.60356 11.0367 5.63336 10.9359 5.62644 10.8343C5.63472 10.7306 5.60616 10.6273 5.54578 10.5426C5.52177 10.5121 5.491 10.4877 5.4559 10.4712C5.42081 10.4547 5.38235 10.4466 5.34358 10.4476C5.30587 10.4469 5.26853 10.4549 5.23442 10.471C5.20031 10.4871 5.17035 10.5108 5.14691 10.5404C5.09078 10.6243 5.0647 10.7248 5.0729 10.8254H5.06958Z" fill="#0054A5"/>
<path d="M6.3623 11.4827V9.74255H6.69377V11.4827H6.3623Z" fill="#0054A5"/>
<path d="M7.84502 11.0861L8.17648 11.1413C8.14108 11.2533 8.07008 11.3507 7.97428 11.4186C7.87082 11.4854 7.74928 11.5186 7.62625 11.5136C7.53342 11.5206 7.44028 11.5046 7.35511 11.467C7.26993 11.4294 7.19533 11.3715 7.13788 11.2982C7.05084 11.1702 7.0071 11.0176 7.01305 10.8629C7.0025 10.6836 7.06146 10.5071 7.17767 10.3701C7.22977 10.3119 7.29391 10.2657 7.36565 10.2348C7.4374 10.2039 7.51502 10.189 7.5931 10.1911C7.67607 10.1878 7.75875 10.2029 7.83517 10.2354C7.91159 10.2679 7.97987 10.3169 8.03505 10.3789C8.14554 10.5038 8.19525 10.6938 8.19083 10.9513H7.35225C7.34843 11.0361 7.37729 11.1191 7.4329 11.1833C7.45779 11.2098 7.48794 11.2307 7.52143 11.2448C7.55493 11.2589 7.59103 11.2658 7.62736 11.2651C7.67544 11.267 7.72269 11.2521 7.76104 11.2231C7.8027 11.1873 7.83208 11.1394 7.84502 11.0861ZM7.86268 10.748C7.86526 10.6676 7.83857 10.5891 7.78756 10.527C7.76499 10.5023 7.73751 10.4825 7.70688 10.469C7.67625 10.4555 7.64314 10.4485 7.60966 10.4485C7.57619 10.4485 7.54308 10.4555 7.51245 10.469C7.48182 10.4825 7.45437 10.5023 7.4318 10.527C7.38096 10.589 7.35566 10.668 7.36107 10.748H7.86268Z" fill="#0054A5"/>
<path d="M9.29016 11.4827V9.74255H10.5773V10.0365H9.64263V10.4232H10.5155V10.7159H9.64592V11.1899H10.616V11.4827H9.29016Z" fill="#0054A5"/>
<path d="M11.8093 11.4829V11.294C11.763 11.3618 11.7008 11.4172 11.6281 11.4553C11.5548 11.4937 11.4733 11.5138 11.3905 11.5139C11.3109 11.515 11.2322 11.496 11.1619 11.4586C11.0972 11.4239 11.0459 11.3687 11.016 11.3017C10.9817 11.2127 10.9663 11.1175 10.9707 11.0222V10.2234H11.3022V10.8024C11.2968 10.9132 11.3027 11.0242 11.3198 11.1338C11.3313 11.172 11.355 11.2054 11.3872 11.2288C11.4235 11.2538 11.467 11.2662 11.511 11.2642C11.5657 11.2649 11.6194 11.2487 11.6645 11.2178C11.7071 11.1895 11.7396 11.1485 11.7574 11.1007C11.7797 10.9887 11.7878 10.8744 11.7817 10.7604V10.2289H12.1131V11.4885L11.8093 11.4829Z" fill="#0054A5"/>
<path d="M12.8555 11.4829H12.524V10.2233H12.8356V10.4023C12.8714 10.3371 12.9199 10.2796 12.9782 10.2333C13.0212 10.2053 13.0716 10.1907 13.1229 10.1913C13.2011 10.192 13.2775 10.2141 13.3439 10.2554L13.2422 10.5471C13.1959 10.5139 13.1411 10.4947 13.0842 10.4918C13.0412 10.4909 12.9992 10.5045 12.9649 10.5305C12.9261 10.5687 12.8996 10.6175 12.8887 10.6708C12.8637 10.8104 12.8541 10.9523 12.8599 11.094L12.8555 11.4829Z" fill="#0054A5"/>
<path d="M13.4744 10.8355C13.4749 10.7229 13.503 10.6121 13.5562 10.5129C13.608 10.412 13.6888 10.3289 13.7882 10.2742C13.8899 10.2191 14.0039 10.1905 14.1196 10.1914C14.2065 10.1886 14.2931 10.2037 14.3739 10.2358C14.4546 10.268 14.528 10.3164 14.5892 10.3781C14.7072 10.5075 14.7726 10.6764 14.7726 10.8515C14.7726 11.0267 14.7072 11.1955 14.5892 11.325C14.529 11.387 14.4566 11.4358 14.3765 11.4683C14.2964 11.5009 14.2104 11.5164 14.124 11.5139C14.0089 11.5145 13.8952 11.4876 13.7926 11.4354C13.6906 11.3858 13.6068 11.3054 13.5528 11.2056C13.4967 11.0906 13.4697 10.9634 13.4744 10.8355ZM13.8158 10.8532C13.8086 10.9571 13.8405 11.0599 13.9053 11.1415C13.9329 11.173 13.9668 11.1982 14.005 11.2155C14.0431 11.2327 14.0844 11.2417 14.1263 11.2417C14.1681 11.2417 14.2095 11.2327 14.2476 11.2155C14.2857 11.1982 14.3196 11.173 14.3472 11.1415C14.4114 11.0588 14.4428 10.9554 14.4356 10.851C14.4423 10.748 14.4109 10.6461 14.3472 10.5648C14.3198 10.533 14.2859 10.5075 14.2478 10.4901C14.2097 10.4726 14.1682 10.4635 14.1263 10.4635C14.0843 10.4635 14.0428 10.4726 14.0047 10.4901C13.9666 10.5075 13.9327 10.533 13.9053 10.5648C13.8405 10.6464 13.8086 10.7493 13.8158 10.8532Z" fill="#0054A5"/>
<path d="M15.8663 11.4829V9.74276H16.4298C16.5699 9.73706 16.7103 9.74595 16.8486 9.76928C16.9486 9.79615 17.0367 9.85613 17.0983 9.93943C17.1692 10.0379 17.205 10.1574 17.1999 10.2786C17.2028 10.3719 17.1827 10.4645 17.1414 10.5482C17.1067 10.6165 17.0559 10.6753 16.9933 10.7195C16.939 10.7589 16.8774 10.7871 16.8121 10.8023C16.6916 10.8214 16.5695 10.8295 16.4475 10.8266H16.2188V11.4829H15.8663ZM16.2188 10.0367V10.5338H16.4111C16.504 10.5394 16.5973 10.5301 16.6873 10.5062C16.732 10.4894 16.7706 10.4594 16.7978 10.42C16.8239 10.3796 16.8373 10.3323 16.8364 10.2841C16.8394 10.2263 16.8196 10.1695 16.7812 10.1262C16.7445 10.0853 16.695 10.058 16.6408 10.0488C16.557 10.0379 16.4724 10.0338 16.3878 10.0367H16.2188Z" fill="#0054A5"/>
<path d="M17.8076 10.6057L17.5082 10.5504C17.5325 10.4421 17.5948 10.3461 17.6838 10.2797C17.7955 10.2135 17.9245 10.1827 18.054 10.1914C18.167 10.1858 18.2798 10.2039 18.3854 10.2444C18.4496 10.272 18.5033 10.3192 18.539 10.3792C18.5763 10.4744 18.5918 10.5767 18.5843 10.6786V11.0686C18.5822 11.1507 18.5877 11.2328 18.6009 11.3139C18.6139 11.3725 18.6339 11.4292 18.6606 11.4829H18.3291C18.3203 11.462 18.3103 11.4288 18.297 11.3857C18.2938 11.3726 18.2897 11.3597 18.2849 11.347C18.2326 11.4001 18.1707 11.4428 18.1026 11.473C18.0369 11.5006 17.9662 11.5145 17.8949 11.5139C17.7831 11.52 17.6733 11.4823 17.5888 11.4089C17.5524 11.3746 17.5237 11.3329 17.5047 11.2866C17.4856 11.2403 17.4766 11.1905 17.4784 11.1404C17.4776 11.0736 17.4951 11.0079 17.5292 10.9504C17.5631 10.894 17.6132 10.849 17.6728 10.8211C17.7577 10.7846 17.8467 10.7586 17.938 10.7438C18.0486 10.7265 18.1574 10.6988 18.2628 10.6609V10.6278C18.2653 10.6024 18.2622 10.5769 18.2538 10.5528C18.2454 10.5288 18.2319 10.5069 18.2142 10.4886C18.1604 10.4552 18.097 10.4408 18.0341 10.4477C17.9851 10.4444 17.9364 10.4568 17.8949 10.483C17.8537 10.5138 17.8232 10.5567 17.8076 10.6057ZM18.2573 10.8786C18.1905 10.8994 18.1226 10.9167 18.054 10.9305C17.9908 10.9401 17.9297 10.9599 17.8728 10.9891C17.853 11.0015 17.8366 11.0188 17.8252 11.0393C17.8138 11.0597 17.8077 11.0828 17.8076 11.1062C17.8073 11.1291 17.8119 11.1517 17.8211 11.1727C17.8302 11.1936 17.8437 11.2124 17.8606 11.2277C17.878 11.2449 17.8988 11.2584 17.9216 11.2674C17.9444 11.2763 17.9687 11.2805 17.9932 11.2797C18.0553 11.2789 18.1154 11.258 18.1645 11.22C18.202 11.1924 18.2298 11.1538 18.244 11.1095C18.2552 11.0558 18.2597 11.0008 18.2573 10.946V10.8786Z" fill="#0054A5"/>
<path d="M18.8197 10.2234H19.1755L19.4771 11.1172L19.7732 10.2234H20.1179L19.676 11.4387L19.5953 11.6597C19.5732 11.7188 19.5451 11.7755 19.5113 11.8288C19.4866 11.8653 19.4556 11.8971 19.4197 11.9227C19.3808 11.9487 19.3378 11.9682 19.2926 11.9801C19.2366 11.994 19.179 12.0007 19.1213 12C19.0578 12.0001 18.9945 11.9934 18.9324 11.9801L18.9015 11.7183C18.9483 11.7284 18.9961 11.7335 19.044 11.7337C19.076 11.7362 19.1082 11.7313 19.1381 11.7194C19.168 11.7076 19.1947 11.689 19.2164 11.6652C19.257 11.6129 19.2863 11.5527 19.3025 11.4885L18.8197 10.2234Z" fill="#0054A5"/>
<path d="M20.3798 10.2233H20.6869V10.3946C20.7322 10.3325 20.7913 10.2818 20.8596 10.2465C20.9279 10.2112 21.0034 10.1923 21.0803 10.1913C21.1538 10.1898 21.2265 10.2073 21.2913 10.2421C21.3533 10.2776 21.4042 10.3296 21.4382 10.3924C21.487 10.3306 21.5479 10.2794 21.6172 10.2421C21.6806 10.2088 21.7511 10.1914 21.8227 10.1913C21.905 10.1885 21.9864 10.2083 22.058 10.2488C22.1232 10.2866 22.174 10.3449 22.2028 10.4145C22.2298 10.4986 22.2415 10.587 22.2371 10.6752V11.4829H21.9056V10.7614C21.9125 10.6789 21.9008 10.5958 21.8713 10.5183C21.856 10.495 21.8347 10.4762 21.8096 10.4637C21.7846 10.4513 21.7567 10.4458 21.7288 10.4476C21.6815 10.4476 21.6354 10.4627 21.5973 10.4907C21.5535 10.5203 21.5218 10.5646 21.5078 10.6156C21.4863 10.7007 21.477 10.7885 21.4802 10.8763V11.4829H21.1487V10.7912C21.1529 10.7116 21.147 10.6318 21.1311 10.5537C21.1221 10.5215 21.1027 10.4931 21.0758 10.473C21.0452 10.4546 21.0098 10.4458 20.9742 10.4476C20.925 10.4469 20.8769 10.4612 20.8361 10.4885C20.7943 10.518 20.7633 10.5603 20.7477 10.609C20.7262 10.6941 20.7172 10.782 20.7212 10.8697V11.4829H20.3897L20.3798 10.2233Z" fill="#0054A5"/>
<path d="M23.3728 11.0861L23.7043 11.1413C23.6685 11.2534 23.5972 11.3508 23.501 11.4186C23.398 11.4855 23.2768 11.5187 23.1541 11.5136C23.0612 11.5206 22.9681 11.5046 22.8829 11.467C22.7978 11.4294 22.7232 11.3715 22.6657 11.2982C22.5787 11.1702 22.5349 11.0176 22.5409 10.8629C22.5303 10.6836 22.5893 10.5071 22.7055 10.3701C22.7576 10.3119 22.8217 10.2657 22.8935 10.2348C22.9652 10.2039 23.0428 10.189 23.1209 10.1911C23.2039 10.1878 23.2866 10.2029 23.363 10.2354C23.4394 10.2679 23.5077 10.3169 23.5629 10.3789C23.6734 10.5038 23.7231 10.6938 23.7187 10.9513H22.8801C22.8762 11.0361 22.9051 11.1191 22.9607 11.1833C22.9856 11.2098 23.0158 11.2307 23.0493 11.2448C23.0828 11.2589 23.1188 11.2658 23.1552 11.2651C23.2029 11.2671 23.2499 11.2522 23.2878 11.2231C23.3301 11.1877 23.36 11.1397 23.3728 11.0861ZM23.3905 10.748C23.3931 10.6676 23.3664 10.5891 23.3154 10.527C23.2928 10.5023 23.2653 10.4825 23.2347 10.469C23.2041 10.4555 23.171 10.4485 23.1375 10.4485C23.104 10.4485 23.0709 10.4555 23.0403 10.469C23.0097 10.4825 22.9822 10.5023 22.9596 10.527C22.9084 10.5887 22.883 10.6679 22.8889 10.748H23.3905Z" fill="#0054A5"/>
<path d="M25.2102 11.4828H24.8787V10.8387C24.8834 10.7497 24.8759 10.6605 24.8566 10.5735C24.8448 10.5358 24.8206 10.5031 24.7881 10.4807C24.7538 10.4579 24.7133 10.4463 24.6721 10.4475C24.6169 10.4469 24.5628 10.4635 24.5174 10.495C24.4733 10.5258 24.4404 10.57 24.4235 10.621C24.4023 10.7159 24.3938 10.8133 24.3981 10.9105V11.4828H24.0667V10.2232H24.3771V10.4078C24.4444 10.3122 24.5424 10.2426 24.6549 10.2106C24.7673 10.1787 24.8873 10.1862 24.9948 10.2321C25.0489 10.2533 25.0965 10.2883 25.1329 10.3337C25.1644 10.3753 25.1866 10.4231 25.198 10.474C25.2121 10.5468 25.2184 10.6209 25.2168 10.695L25.2102 11.4828Z" fill="#0054A5"/>
<path d="M26.2046 10.2232V10.4884H25.977V10.9989C25.9749 11.059 25.9771 11.1192 25.9836 11.179C25.9875 11.1961 25.9978 11.2112 26.0124 11.2209C26.0285 11.2323 26.0479 11.2382 26.0676 11.2375C26.113 11.2345 26.1574 11.2237 26.1991 11.2055L26.2289 11.464C26.1459 11.4981 26.0568 11.5151 25.9671 11.5137C25.9115 11.5146 25.8563 11.5045 25.8046 11.4839C25.7611 11.4688 25.7228 11.4416 25.6942 11.4055C25.6694 11.3659 25.6536 11.3214 25.6478 11.2751C25.6391 11.1969 25.6358 11.1183 25.6378 11.0397V10.4873H25.4854V10.2221H25.6378V9.96913L25.9693 9.77246V10.2221L26.2046 10.2232Z" fill="#0054A5"/>
<path d="M26.3892 11.1271L26.7206 11.0752C26.7307 11.133 26.7613 11.1852 26.8068 11.2221C26.86 11.2593 26.9244 11.2772 26.9891 11.273C27.0574 11.2777 27.1255 11.2606 27.1836 11.2243C27.1975 11.2139 27.2087 11.2004 27.2164 11.1849C27.224 11.1693 27.2279 11.1522 27.2278 11.1348C27.2282 11.1232 27.2263 11.1117 27.2221 11.1008C27.2179 11.09 27.2116 11.0802 27.2035 11.0719C27.1704 11.0491 27.1326 11.034 27.093 11.0277C26.9141 10.9993 26.7405 10.9442 26.5781 10.8642C26.5306 10.8339 26.4918 10.7918 26.4654 10.7421C26.4391 10.6923 26.4261 10.6365 26.4278 10.5802C26.4271 10.5273 26.4385 10.4749 26.4611 10.427C26.4837 10.3792 26.5169 10.3371 26.5582 10.304C26.6752 10.2204 26.8182 10.1812 26.9615 10.1935C27.0957 10.1846 27.2298 10.2137 27.3482 10.2775C27.4341 10.3364 27.4961 10.4242 27.5228 10.525L27.2079 10.5846C27.1969 10.5394 27.1692 10.5 27.1305 10.4741C27.0817 10.4446 27.025 10.4307 26.9681 10.4344C26.9022 10.4291 26.836 10.4421 26.777 10.4719C26.7653 10.4789 26.7556 10.4888 26.7489 10.5006C26.7421 10.5124 26.7385 10.5257 26.7383 10.5393C26.7385 10.5515 26.7416 10.5635 26.7473 10.5743C26.7531 10.5851 26.7614 10.5943 26.7714 10.6012C26.8717 10.6456 26.9771 10.6771 27.0852 10.6951C27.219 10.7174 27.3464 10.7683 27.4587 10.8443C27.4949 10.8748 27.5236 10.9131 27.5427 10.9564C27.5619 10.9996 27.5709 11.0467 27.5692 11.094C27.5689 11.1515 27.5558 11.2083 27.5307 11.2601C27.5057 11.3119 27.4694 11.3574 27.4244 11.3934C27.3013 11.4854 27.149 11.5298 26.9957 11.5182C26.8524 11.5259 26.7102 11.4897 26.588 11.4144C26.4878 11.3472 26.4168 11.2446 26.3892 11.1271Z" fill="#0054A5"/>
<path d="M30.2496 11.4827H29.8706L29.7204 11.0894H29.0188L28.8751 11.4827H28.5028L29.1768 9.74255H29.5469L30.2496 11.4827ZM29.6044 10.7955L29.3613 10.1503L29.1259 10.7955H29.6044Z" fill="#0054A5"/>
<path d="M30.8251 11.4829H30.4937V10.2233H30.8041V10.4023C30.8398 10.3367 30.8887 10.2792 30.9477 10.2333C30.9903 10.2053 31.0404 10.1906 31.0914 10.1913C31.1695 10.192 31.246 10.2141 31.3123 10.2554L31.2107 10.5471C31.1647 10.5141 31.1103 10.4949 31.0538 10.4918C31.0108 10.4906 30.9686 10.5042 30.9345 10.5305C30.8949 10.5682 30.8679 10.6172 30.8572 10.6708C30.8328 10.8105 30.8235 10.9523 30.8295 11.094L30.8251 11.4829Z" fill="#0054A5"/>
<path d="M32.2581 11.0862L32.5895 11.1415C32.5538 11.2536 32.4824 11.351 32.3862 11.4188C32.2832 11.4856 32.162 11.5187 32.0393 11.5138C31.9465 11.5208 31.8534 11.5048 31.7682 11.4672C31.683 11.4296 31.6084 11.3716 31.5509 11.2984C31.4639 11.1703 31.4202 11.0178 31.4261 10.8631C31.4151 10.6837 31.4741 10.507 31.5907 10.3703C31.6428 10.3121 31.707 10.2659 31.7787 10.235C31.8505 10.2041 31.9281 10.1892 32.0062 10.1913C32.0892 10.1873 32.1721 10.2022 32.2486 10.2347C32.3251 10.2672 32.3933 10.3166 32.4481 10.3791C32.5586 10.504 32.6094 10.694 32.605 10.9515H31.7653C31.7623 11.0363 31.7915 11.1192 31.8471 11.1835C31.872 11.2099 31.9021 11.2309 31.9356 11.245C31.9691 11.2591 32.0052 11.266 32.0415 11.2652C32.0893 11.2672 32.1362 11.2523 32.1741 11.2232C32.2157 11.1875 32.2451 11.1396 32.2581 11.0862ZM32.2757 10.7481C32.2783 10.6678 32.2516 10.5893 32.2006 10.5272C32.1779 10.5024 32.1504 10.4827 32.1197 10.4691C32.0889 10.4556 32.0557 10.4486 32.0222 10.4486C31.9886 10.4486 31.9554 10.4556 31.9247 10.4691C31.894 10.4827 31.8664 10.5024 31.8437 10.5272C31.7933 10.5893 31.7684 10.6683 31.7741 10.7481H32.2757Z" fill="#0054A5"/>
<path d="M33.1962 10.6057L32.8957 10.5504C32.9209 10.4425 32.983 10.3467 33.0713 10.2797C33.1829 10.2135 33.312 10.1827 33.4415 10.1914C33.5545 10.1857 33.6674 10.2038 33.7729 10.2444C33.8375 10.2718 33.8916 10.319 33.9276 10.3792C33.9644 10.4745 33.9795 10.5768 33.9718 10.6786V11.0686C33.97 11.1507 33.9752 11.2327 33.9873 11.3139C34.0002 11.3726 34.0206 11.4294 34.048 11.4829H33.7166C33.7041 11.4512 33.6934 11.4187 33.6845 11.3857C33.6845 11.3669 33.6746 11.3537 33.6724 11.347C33.6197 11.3996 33.5579 11.4423 33.4901 11.473C33.4243 11.5005 33.3537 11.5144 33.2824 11.5139C33.1703 11.52 33.0601 11.4824 32.9752 11.4089C32.9161 11.3498 32.8781 11.2729 32.8671 11.19C32.8561 11.1071 32.8727 11.0229 32.9145 10.9504C32.9481 10.8942 32.9977 10.8492 33.057 10.8211C33.1422 10.7844 33.2316 10.7585 33.3233 10.7438C33.4336 10.7267 33.542 10.6989 33.647 10.6609V10.6278C33.6496 10.6025 33.6467 10.577 33.6385 10.553C33.6303 10.5289 33.617 10.507 33.5995 10.4886C33.5456 10.4553 33.4823 10.4409 33.4194 10.4477C33.3701 10.4446 33.321 10.457 33.2791 10.483C33.2395 10.5144 33.2105 10.5572 33.1962 10.6057ZM33.6448 10.8786C33.6017 10.8929 33.5343 10.9106 33.4426 10.9305C33.3793 10.9398 33.3181 10.9596 33.2614 10.9891C33.2414 11.0014 33.2249 11.0186 33.2135 11.0391C33.2021 11.0596 33.1961 11.0827 33.1962 11.1062C33.1959 11.129 33.2004 11.1515 33.2093 11.1724C33.2183 11.1934 33.2315 11.2122 33.2481 11.2277C33.2655 11.2449 33.2863 11.2584 33.3091 11.2674C33.3319 11.2763 33.3562 11.2805 33.3807 11.2797C33.4431 11.2788 33.5035 11.2579 33.5531 11.22C33.5908 11.193 33.6184 11.1541 33.6315 11.1095C33.6427 11.0558 33.6472 11.0008 33.6448 10.946V10.8786Z" fill="#0054A5"/>
<path d="M8.11353 2.90456H5.83309C5.83309 2.53112 5.78925 2.28032 5.70159 2.15216C5.56606 1.96285 5.19152 1.8682 4.57795 1.8682C3.98206 1.8682 3.588 1.92271 3.39575 2.03173C3.2035 2.14222 3.10626 2.37865 3.10626 2.74547C3.10626 3.07693 3.19245 3.29791 3.3626 3.39955C3.51195 3.48125 3.67857 3.52631 3.84874 3.53103L4.30946 3.56307C5.295 3.62789 5.91042 3.67393 6.15571 3.70118C6.93501 3.77926 7.49994 3.98624 7.85055 4.32212C8.13206 4.59492 8.30685 4.95933 8.34335 5.34963C8.37604 5.63423 8.39153 5.92055 8.38974 6.20701C8.38974 6.94359 8.31978 7.48056 8.17983 7.81792C7.92571 8.4418 7.35486 8.8366 6.46729 9.00233C5.903 9.08539 5.33268 9.1205 4.76247 9.10729C3.48524 9.10729 2.59545 9.03106 2.09311 8.87859C1.47659 8.69076 1.07147 8.31142 0.877752 7.74057C0.768738 7.4231 0.714233 6.89387 0.714233 6.15287H2.99468V6.34182C2.99468 6.73736 3.10811 6.99184 3.33498 7.10527C3.51347 7.18833 3.70822 7.23061 3.90509 7.22901H4.74368C5.1709 7.22901 5.44379 7.20692 5.56238 7.16272C5.65664 7.1316 5.74272 7.07969 5.81424 7.01085C5.88576 6.942 5.9409 6.85798 5.9756 6.76498C6.01412 6.62093 6.0316 6.47208 6.02752 6.32303C6.02752 5.92159 5.88021 5.67742 5.58558 5.5905C5.47583 5.55662 4.9676 5.50874 4.06087 5.44686C3.33166 5.39457 2.82526 5.34448 2.54167 5.2966C1.79478 5.15592 1.29722 4.86829 1.049 4.43371C0.828024 4.06542 0.717538 3.50487 0.717538 2.75209C0.702737 2.2878 0.76243 1.82415 0.894327 1.37875C0.992962 1.0614 1.19379 0.785591 1.46554 0.594295C1.85003 0.320288 2.34169 0.158977 2.94053 0.110363C3.43846 0.0669048 3.99089 0.045166 4.59783 0.045166C5.55538 0.045166 6.23709 0.0996841 6.64294 0.208698C7.63585 0.476076 8.13193 1.22296 8.1312 2.44936C8.13451 2.55322 8.12789 2.70348 8.11353 2.90456Z" fill="#0054A5"/>
<path d="M18.139 9.10741V0H22.7055C23.3323 0 23.8111 0.0511938 24.1418 0.153578C24.4932 0.25176 24.815 0.434962 25.0788 0.687008C25.3426 0.939054 25.5403 1.25218 25.6543 1.59874C25.7884 1.98102 25.8551 2.55629 25.8543 3.32454C25.8543 4.24821 25.7807 4.91113 25.6334 5.3133C25.3387 6.11249 24.7366 6.57211 23.8269 6.69217C23.7164 6.70985 23.2645 6.72643 22.4602 6.73858L22.0536 6.75295H20.5918V9.10411L18.139 9.10741ZM20.5896 4.64375H22.1166C22.6012 4.62607 22.8959 4.58924 23.0005 4.53326C23.1478 4.45371 23.2446 4.29424 23.291 4.05486C23.3274 3.82025 23.343 3.58288 23.3374 3.34553C23.3491 3.05672 23.3178 2.76778 23.2446 2.48816C23.1562 2.22594 22.9448 2.06646 22.6104 2.00975C22.5441 2.00091 22.3895 1.99649 22.1353 1.99649H20.5885L20.5896 4.64375Z" fill="#0054A5"/>
<path d="M31.0848 7.53298H27.8078L27.3659 9.10741H24.8302L27.567 0H31.2638L34.0338 9.10741H31.5522L31.0848 7.53298ZM30.5976 5.75857L29.4497 1.81088L28.3348 5.75857H30.5976Z" fill="#0054A5"/>
<path d="M14.7571 1.28173C15.2375 1.28143 15.712 1.38853 16.1457 1.59517C16.5795 1.80182 16.9616 2.10278 17.264 2.47608L17.7922 1.3436C17.2483 0.830462 16.5885 0.456356 15.8689 0.253105C15.1494 0.049855 14.3914 0.0234879 13.6594 0.176256C12.9275 0.329024 12.2433 0.656402 11.6651 1.13051C11.0869 1.60462 10.6319 2.21142 10.3387 2.89926H9.30898L8.7002 4.20299H10.026C10.0161 4.32453 10.0094 4.44496 10.0094 4.56871C10.0094 4.71787 10.0172 4.86592 10.0316 5.01066H9.36865L8.75986 6.3155H10.373C10.7348 7.1342 11.3277 7.82949 12.079 8.31603C12.8303 8.80258 13.7073 9.05922 14.6024 9.05447C15.521 9.05804 16.4201 8.78887 17.1856 8.28106V6.68232C16.8576 7.05716 16.4472 7.35094 15.9867 7.54063C15.5262 7.73032 15.028 7.81076 14.5311 7.77566C14.0343 7.74055 13.5523 7.59085 13.123 7.33828C12.6937 7.08572 12.3288 6.73716 12.0568 6.31992H15.4344L16.0431 5.01508H11.5607C11.5368 4.85599 11.5246 4.69534 11.5242 4.53445C11.5242 4.42397 11.5309 4.31348 11.5408 4.20299H16.4199L17.0287 2.89926H11.9629C12.2458 2.40826 12.653 2.00032 13.1434 1.71641C13.6339 1.43249 14.1904 1.28259 14.7571 1.28173Z" fill="#FFC10E"/>
<path d="M14.757 1.32028C15.2317 1.31985 15.7005 1.42571 16.129 1.63009C16.5574 1.83447 16.9347 2.13219 17.2331 2.50139L17.2728 2.55L17.2993 2.49365L17.8275 1.36005L17.8396 1.33464L17.8187 1.31476C17.0422 0.587189 16.0421 0.144048 14.9816 0.0575729C13.921 -0.028902 12.8624 0.246382 11.9783 0.83856C11.2295 1.33902 10.6464 2.05091 10.3033 2.88367L10.3387 2.85937H9.28355L9.2736 2.88256L8.66481 4.18631L8.6394 4.24266H10.026L9.98734 4.19957C9.97518 4.33547 9.97077 4.4559 9.97077 4.56859C9.97072 4.71619 9.97809 4.86369 9.99287 5.01054L10.0315 4.96745H9.34101L9.33105 4.98954L8.72227 6.29439L8.69686 6.34964H10.3707L10.3343 6.32644C10.6985 7.15272 11.2963 7.85444 12.0543 8.34522C12.8123 8.836 13.6972 9.09441 14.6002 9.08861C15.527 9.09102 16.4337 8.81839 17.2054 8.30525L17.222 8.2942V6.56951L17.1546 6.64795C16.8305 7.01817 16.425 7.30829 15.97 7.49557C15.515 7.68286 15.0228 7.76223 14.5319 7.72744C14.0411 7.69266 13.565 7.54467 13.1409 7.29509C12.7169 7.0455 12.3564 6.70109 12.0877 6.28886L12.0545 6.34964H15.4575L15.4675 6.32755L16.0763 5.02269L16.1028 4.96745H11.5585L11.5971 5.0006C11.5739 4.8433 11.562 4.68451 11.5618 4.5255C11.5618 4.41738 11.5673 4.30933 11.5784 4.20177L11.5386 4.23713H16.4431L16.453 4.21393L17.0618 2.91019L17.0872 2.85384H11.9606L11.9949 2.9124C12.2763 2.42902 12.6793 2.02772 13.1639 1.7484C13.6485 1.46909 14.1977 1.32149 14.757 1.32028ZM11.9606 2.93781H17.0264L16.9911 2.88256L16.3823 4.18631L16.4177 4.16421H11.5032V4.19957C11.4922 4.30971 11.4866 4.42034 11.4866 4.53103C11.4869 4.69371 11.4987 4.85616 11.522 5.01716L11.5275 5.05142H16.0398L16.0044 4.99507L15.3957 6.29992L15.431 6.27671H11.9816L12.0214 6.33749C12.2967 6.76009 12.6661 7.11317 13.1007 7.36905C13.5353 7.62493 14.0233 7.77663 14.5264 7.81228C15.0295 7.84792 15.534 7.76653 16.0003 7.57449C16.4667 7.38245 16.8822 7.08497 17.2143 6.7054L17.1458 6.67889V8.27763L17.1623 8.24559C16.404 8.75115 15.5127 9.02032 14.6013 9.019C13.7136 9.02497 12.8436 8.771 12.0985 8.28842C11.3534 7.80583 10.7659 7.11574 10.4083 6.30323L10.3972 6.27892H8.75874L8.79407 6.33527L9.40286 5.03042L9.36752 5.05363H10.0735V5.00943C10.0581 4.86263 10.0503 4.71511 10.0503 4.56749C10.0503 4.457 10.0558 4.33767 10.0669 4.20509V4.1631H8.69907L8.73441 4.21834L9.34319 2.91461L9.30785 2.9367H10.3641L10.374 2.9124C10.7112 2.09394 11.2843 1.39431 12.0203 0.902637C12.8899 0.319774 13.9313 0.0487788 14.9747 0.133856C16.0181 0.218934 17.0019 0.655061 17.7656 1.3711L17.7568 1.32581L17.2297 2.4594L17.2949 2.45056C16.9613 2.03859 16.5323 1.71409 16.0451 1.50508C15.5579 1.29607 15.0271 1.20884 14.4986 1.25094C13.9702 1.29304 13.4599 1.46319 13.0119 1.7467C12.5639 2.03021 12.1917 2.41855 11.9275 2.87814L11.8932 2.9367L11.9606 2.93781Z" fill="#0054A5"/>
</svg>
