<svg width="24" height="24" viewBox="0 0 24 24" fill="none" xmlns="http://www.w3.org/2000/svg">
<path d="M0 12C0 5.37258 5.37258 0 12 0C18.6274 0 24 5.37258 24 12C24 18.6274 18.6274 24 12 24C5.37258 24 0 18.6274 0 12Z" fill="black"/>
<path d="M7.63726 18.6663L9.56655 15.3271L11.4942 11.9997L13.4109 8.66048L13.7292 8.13103L13.8691 8.66048L14.4572 10.8587L13.7988 11.9997L11.8712 15.3271L9.95442 18.6663H12.2582L14.1866 15.3271L15.1861 13.5989L15.6569 15.3271L16.5499 18.6663H18.6191L17.7261 15.3271L16.8322 11.9997L16.5976 11.141L18.0318 8.66048H15.9392L15.868 8.41335L15.1391 5.68569L15.0453 5.33301H13.0348L12.9878 5.40338L11.1063 8.66048L9.17785 11.9997L7.26195 15.3271L5.3335 18.6663H7.63726Z" fill="white"/>
</svg>
