<svg width="24" height="24" viewBox="0 0 24 24" fill="none" xmlns="http://www.w3.org/2000/svg">
<path d="M0 12C0 5.37258 5.37258 0 12 0C18.6274 0 24 5.37258 24 12C24 18.6274 18.6274 24 12 24C5.37258 24 0 18.6274 0 12Z" fill="#85BB65"/>
<path d="M15.4469 8.35724C14.928 7.0388 13.627 6.91979 12.112 7.21397L11.5724 5.33325L10.4278 5.66152L10.9533 7.49343C10.6525 7.57901 10.3463 7.67395 10.0421 7.76755L9.51389 5.92361L8.36995 6.25121L8.90816 8.13193C8.66212 8.20814 8.4201 8.28302 8.18275 8.35122L8.18075 8.34453L6.60156 8.79716L6.95257 10.0207C6.95257 10.0207 7.79364 9.76125 7.78361 9.78131C8.2476 9.64826 8.47559 9.87424 8.58591 10.0942L9.201 12.2363C9.23242 12.2276 9.27454 12.2169 9.32402 12.2096L9.203 12.2444L10.0635 15.2463C10.0849 15.398 10.0661 15.6555 9.74255 15.7491C9.7606 15.7577 8.9095 15.9871 8.9095 15.9871L9.07464 17.4198L10.5642 16.9919C10.8417 16.9137 11.1158 16.8402 11.3839 16.7646L11.9301 18.6667L13.0734 18.3391L12.5339 16.4571C12.8405 16.3757 13.1463 16.291 13.4512 16.203L13.9874 18.077L15.1326 17.7488L14.5884 15.85C16.4812 15.1874 17.6893 14.3163 17.3383 12.4603C17.0561 10.9667 16.1856 10.5134 15.0176 10.5642C15.5846 10.036 15.8286 9.322 15.4469 8.35791V8.35724ZM15.0123 12.8835C15.4201 14.3056 12.9397 14.8418 12.1641 15.0651L11.4414 12.5446C12.217 12.3219 14.5864 11.4013 15.0116 12.8842L15.0123 12.8835ZM13.4598 9.48045C13.8302 10.7742 11.757 11.2054 11.1105 11.3906L10.4553 9.10471C11.1011 8.91951 13.0727 8.13193 13.4598 9.48112V9.48045Z" fill="white"/>
</svg>
