<svg width="24" height="24" viewBox="0 0 24 24" fill="none" xmlns="http://www.w3.org/2000/svg">
<path d="M0 12C0 5.37258 5.37258 0 12 0C18.6274 0 24 5.37258 24 12C24 18.6274 18.6274 24 12 24C5.37258 24 0 18.6274 0 12Z" fill="#F5BC00"/>
<path d="M9.41083 10.9359L12.0002 8.34659L14.5908 10.9373L16.0975 9.43059L12.0002 5.33325L7.90416 9.42925L9.41083 10.9359ZM5.3335 11.9999L6.84016 10.4933L8.34683 11.9999L6.84016 13.5066L5.3335 11.9999ZM9.41083 13.0639L12.0002 15.6533L14.5908 13.0626L16.0975 14.5686L12.0002 18.6666L7.90416 14.5706L7.90216 14.5686L9.41083 13.0639ZM15.6535 11.9999L17.1602 10.4933L18.6668 11.9999L17.1602 13.5066L15.6535 11.9999ZM13.5282 11.9986H13.5295V11.9999L12.0002 13.5293L10.4728 12.0026L10.4702 11.9999L10.4728 11.9979L10.7402 11.7299L10.8702 11.5999L12.0002 10.4706L13.5288 11.9993L13.5282 11.9986Z" fill="white"/>
</svg>
