<svg width="24" height="24" viewBox="0 0 24 24" fill="none" xmlns="http://www.w3.org/2000/svg">
<path d="M0 12C0 5.37258 5.37258 0 12 0C18.6274 0 24 5.37258 24 12C24 18.6274 18.6274 24 12 24C5.37258 24 0 18.6274 0 12Z" fill="#F7931A"/>
<path d="M16.7132 10.6938C16.9231 9.29293 15.8557 8.53967 14.3973 8.03706L14.8705 6.13888L13.7156 5.85148L13.2544 7.69953C12.951 7.62334 12.6395 7.55249 12.3287 7.48164L12.7932 5.62156L11.6383 5.3335L11.1651 7.231C10.9138 7.17352 10.6665 7.11738 10.4272 7.05723L10.4285 7.05121L8.83512 6.65353L8.52767 7.88734C8.52767 7.88734 9.38519 8.08384 9.36715 8.09587C9.83501 8.21284 9.91922 8.52229 9.90519 8.76825L9.36648 10.9304C9.39856 10.9385 9.44 10.9505 9.48679 10.9685L9.36447 10.9385L8.60922 13.9675C8.55174 14.1092 8.4067 14.3224 8.0792 14.2415C8.09123 14.2583 7.23972 14.0323 7.23972 14.0323L6.66626 15.3544L8.17009 15.7293C8.44947 15.7995 8.72351 15.873 8.99286 15.9419L8.51498 17.8614L9.66925 18.1488L10.1425 16.2507C10.4579 16.3356 10.764 16.4144 11.0635 16.4893L10.5916 18.3794L11.7465 18.6668L12.2244 16.7513C14.1948 17.1242 15.6759 16.9738 16.2995 15.192C16.8021 13.7576 16.2748 12.9295 15.2381 12.3902C15.9934 12.2164 16.5615 11.7198 16.7132 10.6938ZM14.0732 14.3953C13.7169 15.8303 11.3007 15.0543 10.5174 14.8598L11.1524 12.3166C11.9357 12.5125 14.4468 12.8995 14.0732 14.3953ZM14.4307 10.6731C14.1052 11.9784 12.0948 11.3147 11.4431 11.1523L12.0179 8.84645C12.6696 9.00887 14.7703 9.31164 14.4307 10.6731Z" fill="white"/>
</svg>
