<svg width="24" height="24" viewBox="0 0 24 24" fill="none" xmlns="http://www.w3.org/2000/svg">
<path d="M0 12C0 5.37258 5.37258 0 12 0C18.6274 0 24 5.37258 24 12C24 18.6274 18.6274 24 12 24C5.37258 24 0 18.6274 0 12Z" fill="#C3A634"/>
<path fill-rule="evenodd" clip-rule="evenodd" d="M9.39834 10.8418H12.8495V12.7468H9.39834V16.7618H11.5751C12.4367 16.7618 13.1415 16.641 13.6903 16.3977C14.2391 16.1552 14.6695 15.8193 14.9823 15.3893C15.3022 14.9422 15.52 14.4249 15.619 13.8768C15.7346 13.2586 15.7909 12.63 15.787 12.0002C15.7909 11.3704 15.7346 10.7417 15.619 10.1235C15.5201 9.57541 15.3023 9.0581 14.9823 8.611C14.6695 8.181 14.2383 7.84516 13.6903 7.60266C13.1415 7.35933 12.4367 7.2385 11.5751 7.2385H9.39834V10.8427V10.8418ZM7.18558 12.7468H6V10.8427H7.18558V5.3335H12.4247C13.3927 5.3335 14.2303 5.5085 14.9383 5.856C15.6462 6.20516 16.2238 6.681 16.6726 7.28516C17.1206 7.8885 17.4542 8.59516 17.6726 9.40433C17.891 10.2135 17.9998 11.0793 17.9998 12.0002C18.0053 12.877 17.8949 13.7505 17.6718 14.596C17.4542 15.4043 17.1206 16.1118 16.6718 16.7152C16.2238 17.3193 15.6462 17.7952 14.9383 18.1443C14.2303 18.4927 13.3919 18.6668 12.4247 18.6668H7.18558V12.7468Z" fill="white"/>
</svg>
