<svg width="24" height="24" viewBox="0 0 24 24" fill="none" xmlns="http://www.w3.org/2000/svg">
<path d="M0 12C0 5.37258 5.37258 0 12 0C18.6274 0 24 5.37258 24 12C24 18.6274 18.6274 24 12 24C5.37258 24 0 18.6274 0 12Z" fill="#E6007A"/>
<path d="M12.0001 8.13026C13.328 8.13026 14.4045 7.50419 14.4045 6.73188C14.4045 5.95957 13.328 5.3335 12.0001 5.3335C10.6722 5.3335 9.5957 5.95957 9.5957 6.73188C9.5957 7.50419 10.6722 8.13026 12.0001 8.13026Z" fill="white"/>
<path d="M12.0001 18.6669C13.328 18.6669 14.4045 18.0408 14.4045 17.2685C14.4045 16.4962 13.328 15.8701 12.0001 15.8701C10.6722 15.8701 9.5957 16.4962 9.5957 17.2685C9.5957 18.0408 10.6722 18.6669 12.0001 18.6669Z" fill="white"/>
<path d="M8.64976 10.0657C9.31371 8.9157 9.3094 7.67021 8.64013 7.2838C7.97086 6.89739 6.89007 7.51637 6.22612 8.66634C5.56217 9.8163 5.56648 11.0618 6.23574 11.4482C6.90501 11.8346 7.9858 11.2156 8.64976 10.0657Z" fill="white"/>
<path d="M17.7736 15.3333C18.4376 14.1833 18.4336 12.938 17.7648 12.5519C17.096 12.1657 16.0156 12.7849 15.3516 13.9349C14.6877 15.0849 14.6916 16.3301 15.3604 16.7163C16.0292 17.1024 17.1097 16.4832 17.7736 15.3333Z" fill="white"/>
<path d="M8.64062 16.7162C9.30989 16.3298 9.3142 15.0843 8.65025 13.9343C7.98629 12.7844 6.9055 12.1654 6.23623 12.5518C5.56696 12.9382 5.56265 14.1837 6.22661 15.3337C6.89056 16.4836 7.97135 17.1026 8.64062 16.7162Z" fill="white"/>
<path d="M17.7653 11.4486C18.4341 11.0625 18.438 9.81718 17.7741 8.66721C17.1101 7.51725 16.0297 6.89805 15.3609 7.28421C14.6921 7.67036 14.6881 8.91563 15.3521 10.0656C16.016 11.2156 17.0965 11.8348 17.7653 11.4486Z" fill="white"/>
</svg>
