<svg width="24" height="24" viewBox="0 0 24 24" fill="none" xmlns="http://www.w3.org/2000/svg">
<path d="M0 12C0 5.37258 5.37258 0 12 0C18.6274 0 24 5.37258 24 12C24 18.6274 18.6274 24 12 24C5.37258 24 0 18.6274 0 12Z" fill="#8247E5"/>
<path d="M15.395 9.7958C15.149 9.65203 14.8292 9.65203 14.5586 9.7958L12.6397 10.898L11.3359 11.6168L9.41713 12.719C9.17113 12.8627 8.85133 12.8627 8.58073 12.719L7.05551 11.8564C6.80951 11.7126 6.63731 11.4491 6.63731 11.1616V9.46035C6.63731 9.17282 6.78491 8.90926 7.05551 8.76549L8.55612 7.92687C8.80213 7.78311 9.12193 7.78311 9.39253 7.92687L10.8932 8.76549C11.1391 8.90926 11.3114 9.17282 11.3114 9.46035V10.5625L12.6152 9.81976V8.71757C12.6152 8.43004 12.4676 8.16648 12.197 8.02271L9.41713 6.44132C9.17113 6.29756 8.85133 6.29756 8.58073 6.44132L5.7517 8.02271C5.4811 8.16648 5.3335 8.43004 5.3335 8.71757V11.9043C5.3335 12.1919 5.4811 12.4554 5.7517 12.5992L8.58073 14.1806C8.82673 14.3243 9.14653 14.3243 9.41713 14.1806L11.3359 13.1024L12.6397 12.3596L14.5586 11.2814C14.8046 11.1376 15.1244 11.1376 15.395 11.2814L16.8956 12.12C17.1416 12.2637 17.3138 12.5273 17.3138 12.8148V14.516C17.3138 14.8036 17.1662 15.0671 16.8956 15.2109L15.395 16.0735C15.149 16.2172 14.8292 16.2172 14.5586 16.0735L13.058 15.2349C12.812 15.0911 12.6397 14.8275 12.6397 14.54V13.4378L11.3359 14.1806V15.2828C11.3359 15.5703 11.4836 15.8339 11.7541 15.9776L14.5832 17.559C14.8292 17.7028 15.149 17.7028 15.4196 17.559L18.2486 15.9776C18.4946 15.8339 18.6668 15.5703 18.6668 15.2828V12.096C18.6668 11.8085 18.5192 11.5449 18.2486 11.4012L15.395 9.7958Z" fill="white"/>
</svg>
