<svg width="24" height="24" viewBox="0 0 24 24" fill="none" xmlns="http://www.w3.org/2000/svg">
<path d="M0 12C0 5.37258 5.37258 0 12 0C18.6274 0 24 5.37258 24 12C24 18.6274 18.6274 24 12 24C5.37258 24 0 18.6274 0 12Z" fill="black"/>
<path d="M16.7845 7.81618L15.1803 8.63814L7.42771 12.6049C7.31726 11.7524 7.44471 10.8859 7.79586 10.102C8.14701 9.31807 8.70805 8.64757 9.41638 8.16529C10.1247 7.68301 10.9525 7.40792 11.8074 7.3707C12.6622 7.33348 13.5106 7.5356 14.2578 7.95451L15.1762 7.48444L15.3133 7.41393C14.442 6.77871 13.4079 6.40725 12.3333 6.34339C11.2586 6.27953 10.1882 6.52594 9.24843 7.05353C8.30867 7.58113 7.5388 8.36786 7.02975 9.32084C6.52069 10.2738 6.29371 11.3532 6.37559 12.4316C6.39091 12.6345 6.34616 12.8373 6.24696 13.0147C6.14776 13.192 5.99854 13.3359 5.81811 13.4282L5.3335 13.6767V14.8344L6.75994 14.1038L7.22183 13.8667L7.67704 13.6337L15.8494 9.45002L16.7678 8.98062L18.6662 8.00891V6.85185L16.7845 7.81618ZM18.6668 9.16731L8.14227 14.5503L7.22384 15.0204L5.33416 15.9894V17.1465L7.21114 16.1862L8.81606 15.3642L16.5766 11.3914C16.6888 12.2452 16.5622 13.1135 16.211 13.899C15.8599 14.6846 15.298 15.3565 14.5884 15.8396C13.8787 16.3226 13.0493 16.5976 12.1928 16.6339C11.3364 16.6703 10.4868 16.4664 9.73917 16.0452L9.68235 16.0754L8.68638 16.5858C9.55782 17.2213 10.5921 17.593 11.6671 17.6569C12.7421 17.7208 13.8128 17.4743 14.7528 16.9464C15.6927 16.4185 16.4627 15.6314 16.9716 14.678C17.4805 13.7246 17.7071 12.6447 17.6247 11.566C17.6096 11.3634 17.6543 11.1608 17.7534 10.9836C17.8525 10.8064 18.0014 10.6626 18.1815 10.5701L18.6668 10.3217V9.16798V9.16731Z" fill="white"/>
</svg>
