<svg width="24" height="24" viewBox="0 0 24 24" fill="none" xmlns="http://www.w3.org/2000/svg">
<path d="M0 12C0 5.37258 5.37258 0 12 0C18.6274 0 24 5.37258 24 12C24 18.6274 18.6274 24 12 24C5.37258 24 0 18.6274 0 12Z" fill="#333333"/>
<path d="M16.7135 6.6665H18.6402L14.6302 10.6378C13.9291 11.3286 12.9844 11.7158 12.0002 11.7158C11.016 11.7158 10.0713 11.3286 9.37016 10.6378L5.35683 6.6665H7.28683L10.3335 9.68184C10.7772 10.1197 11.3755 10.3653 11.9988 10.3653C12.6222 10.3653 13.2205 10.1197 13.6642 9.68184L16.7135 6.6665ZM7.2635 17.7085H5.3335L9.37016 13.7132C10.0713 13.0224 11.016 12.6352 12.0002 12.6352C12.9844 12.6352 13.9291 13.0224 14.6302 13.7132L18.6668 17.7078H16.7368L13.6668 14.6665C13.2232 14.2286 12.6249 13.9831 12.0015 13.9831C11.3781 13.9831 10.7798 14.2286 10.3362 14.6665L7.26283 17.7085H7.2635Z" fill="white"/>
</svg>
