<svg width="24" height="24" viewBox="0 0 24 24" fill="none" xmlns="http://www.w3.org/2000/svg">
<path d="M0 12C0 5.37258 5.37258 0 12 0C18.6274 0 24 5.37258 24 12C24 18.6274 18.6274 24 12 24C5.37258 24 0 18.6274 0 12Z" fill="#2C7DF7"/>
<path fill-rule="evenodd" clip-rule="evenodd" d="M13.1264 18.6667C12.1531 18.6667 11.4438 18.4374 10.9985 17.98C10.5538 17.5214 10.3311 17.0274 10.3311 16.4981C10.3311 16.3047 10.3698 16.1414 10.4478 16.0094C10.5239 15.8784 10.6337 15.7702 10.7658 15.6961C10.9005 15.6201 11.0658 15.5814 11.2625 15.5814C11.4591 15.5814 11.6251 15.6201 11.7598 15.6961C11.8945 15.7727 11.9998 15.8767 12.0778 16.0094C12.1558 16.1414 12.1945 16.3047 12.1945 16.4981C12.1945 16.7321 12.1378 16.9227 12.0238 17.0707C11.9239 17.2084 11.7822 17.3101 11.6198 17.3607C11.7545 17.544 11.9665 17.674 12.2565 17.75C12.5464 17.832 12.8364 17.8727 13.1258 17.8727C13.5147 17.8772 13.8961 17.7656 14.2211 17.552C14.5471 17.338 14.7878 17.022 14.9424 16.6054C15.0978 16.1874 15.1758 15.7141 15.1758 15.1847C15.1758 14.6094 15.0904 14.1181 14.9198 13.7107C14.7538 13.2981 14.5078 12.9928 14.1818 12.7941C13.8645 12.5982 13.4987 12.4951 13.1258 12.4968C12.8778 12.4968 12.5671 12.5981 12.1945 12.8021L11.5111 13.1381V12.8021L14.5858 8.77013H10.3311V12.9548C10.3311 13.3014 10.4085 13.5861 10.5645 13.8101C10.7191 14.0341 10.9578 14.1461 11.2778 14.1461C11.5265 14.1461 11.7645 14.0647 11.9925 13.9014C12.2211 13.7375 12.4206 13.5362 12.5824 13.3061C12.5985 13.266 12.6255 13.2314 12.6604 13.2061C12.6886 13.1822 12.7242 13.169 12.7611 13.1688C12.8184 13.1688 12.8851 13.1968 12.9631 13.2521C13.0338 13.3291 13.0727 13.4302 13.0718 13.5347C13.0629 13.6067 13.05 13.6782 13.0331 13.7487C12.8571 14.1354 12.6131 14.4307 12.3031 14.6347C11.9995 14.8361 11.6428 14.9424 11.2785 14.9401C10.3571 14.9401 9.72048 14.7621 9.36848 14.4054C9.01648 14.0494 8.84048 13.5654 8.84048 12.9548V8.77013H6.6665V7.9908H8.83982V6.22015L8.34382 5.73083V5.3335H9.78781L10.3311 5.60816V7.9908L15.9517 7.97547L16.5117 8.52547L13.0638 11.9161C13.2726 11.834 13.4922 11.7823 13.7158 11.7628C14.0891 11.7628 14.5078 11.8801 14.9738 12.1148C15.4451 12.3434 15.8071 12.6594 16.0604 13.0614C16.3144 13.4587 16.4777 13.8407 16.5497 14.2074C16.6222 14.5283 16.6613 14.8558 16.6664 15.1847C16.6713 15.815 16.5276 16.4376 16.2471 17.002C15.9775 17.5521 15.5283 17.9938 14.9738 18.254C14.3975 18.5306 13.7656 18.6717 13.1264 18.6667Z" fill="white"/>
</svg>
